PathFileType	4	(X/Y/Z)	 s10c0301.trc
DataRate	CameraRate	NumFrames	NumMarkers	Units	OrigDataRate	OrigDataStartFrame	OrigNumFrames
200	200	5	50	mm	200	1751	2000
Frame#	Time	racr			lacr			c7			jug			rlel			rdr			llel			ldr			s2			lic			ric			lasi			rasi			rpsi			lpsi			rgt			lgt			rth1			rth2			rth3			rth4			rlfc			rmfc			rsh1			rsh2			rsh3			rsh4			rlmal			rmmal			rcal			rtoe			rmt5			lth1			lth2			lth4			lth3			llfc			lmfc			llmal			lmmal			lcal			lmt5			lsh1			lsh2			lsh3			lsh4			ltoe			SBIKE			LBIKE			RBIKE			
		X1	Y1	Z1	X2	Y2	Z2	X3	Y3	Z3	X4	Y4	Z4	X5	Y5	Z5	X6	Y6	Z6	X7	Y7	Z7	X8	Y8	Z8	X9	Y9	Z9	X10	Y10	Z10	X11	Y11	Z11	X12	Y12	Z12	X13	Y13	Z13	X14	Y14	Z14	X15	Y15	Z15	X16	Y16	Z16	X17	Y17	Z17	X18	Y18	Z18	X19	Y19	Z19	X20	Y20	Z20	X21	Y21	Z21	X22	Y22	Z22	X23	Y23	Z23	X24	Y24	Z24	X25	Y25	Z25	X26	Y26	Z26	X27	Y27	Z27	X28	Y28	Z28	X29	Y29	Z29	X30	Y30	Z30	X31	Y31	Z31	X32	Y32	Z32	X33	Y33	Z33	X34	Y34	Z34	X35	Y35	Z35	X36	Y36	Z36	X37	Y37	Z37	X38	Y38	Z38	X39	Y39	Z39	X40	Y40	Z40	X41	Y41	Z41	X42	Y42	Z42	X43	Y43	Z43	X44	Y44	Z44	X45	Y45	Z45	X46	Y46	Z46	X47	Y47	Z47	X48	Y48	Z48	X49	Y49	Z49	X50	Y50	Z50	
1751	8.7550	698.797887	1325.536780	-35.867687	722.946458	1319.692541	-345.569418	703.278723	1342.287555	-188.097593	688.711690	1202.226109	-195.527179	597.915109	1077.013995	51.834505	647.393509	870.967459	-19.438510	613.389948	1075.317762	-465.384204	671.323042	883.499508	-373.535215	163.198966	1169.345129	-172.307609	322.059742	1166.443865	-339.110460	359.491372	1139.513064	-45.315351	322.622061	1076.433351	-304.097224	335.766555	1050.201729	-61.222685	220.864932	1206.870330	-114.479880	218.551303	1227.712499	-227.113055	221.723105	1031.067006	-5.221785	215.886538	1067.863955	-380.270812	247.311292	882.011713	8.111636	279.981217	803.329329	-17.131775	266.501596	719.871812	-32.716853	314.692797	811.381545	-29.167635	298.216545	622.190784	-62.153518	254.102587	619.719828	-170.100970	238.408513	524.825850	-19.766555	236.750334	436.720574	-32.939985	193.470970	361.768322	-32.251172	263.053770	432.210191	-60.673212	161.481504	263.109769	-43.662259	184.131473	271.200856	-126.329043	106.911881	251.193637	-92.758913	341.852952	186.829575	-85.568975	254.872563	176.320130	-26.169684	300.338863	961.578922	-394.443885	374.231209	920.056038	-375.131801	395.443141	944.656353	-357.697107	419.672033	844.125094	-371.648808	493.799644	754.169553	-343.773415	467.586629	746.734274	-222.556722	151.667531	594.378255	-376.475880	154.964883	581.164436	-294.116218	98.527131	624.875662	-334.051924	120.562945	448.175295	-391.148452	391.006116	700.987338	-384.686670	327.365783	644.409646	-373.194864	239.496858	623.116544	-382.353583	336.211451	625.145921	-339.891953	171.418697	381.189555	-330.875524	-204.577875	834.072500	-224.091687	-78.239238	81.844420	-423.622706	-102.689092	80.510650	-24.369751	
1752	8.7600	697.676495	1325.434616	-37.318932	723.096546	1320.037739	-346.476539	702.281200	1342.152298	-188.969662	690.138214	1202.064000	-196.181021	596.893889	1076.564565	51.363527	647.711556	870.740710	-19.612245	614.605751	1075.217248	-466.057782	671.257794	883.597360	-373.629131	162.441816	1165.554309	-169.388934	319.703285	1164.696840	-338.924335	360.892957	1136.319974	-46.071503	320.997013	1074.928639	-303.596434	336.789564	1046.951575	-61.873197	220.838561	1202.986019	-111.904808	215.857523	1223.366261	-223.613752	223.138770	1026.438438	-3.303664	213.975084	1065.636355	-379.634393	244.934908	879.769345	9.754198	275.121925	800.443094	-15.848612	259.258466	717.232247	-31.165948	309.898789	807.473148	-28.348071	290.169868	618.870820	-61.247293	243.756982	617.544682	-169.237513	230.942856	521.224597	-18.911891	229.386675	433.294358	-32.225916	186.275246	358.254075	-31.567371	255.420036	428.937785	-60.342960	154.991667	259.531947	-43.426902	177.523056	267.058913	-125.765574	100.464447	249.316892	-92.710281	333.773826	178.957104	-86.074213	246.611044	170.546941	-26.527803	301.098859	960.722985	-392.842484	376.588935	922.257327	-373.824072	396.921045	947.664137	-356.481441	425.173452	848.146323	-370.357898	500.024976	760.167225	-343.414260	473.862488	750.456277	-222.411780	157.330594	601.246133	-375.414453	160.578580	587.860674	-292.707103	103.092962	630.561143	-333.394393	129.083047	454.331050	-390.273038	395.992312	708.311129	-384.853879	332.521900	651.598064	-373.455902	244.593999	630.229768	-381.655126	341.842252	631.705013	-340.619653	182.114880	388.935519	-330.254205	-204.584550	834.059069	-224.063931	-78.229374	81.866890	-423.624568	-102.676826	80.459170	-24.365090	
1753	8.7650	696.594920	1325.312850	-38.880694	723.301141	1320.164406	-347.328074	701.314945	1341.931004	-189.816390	691.571211	1201.846265	-196.755024	595.806856	1076.130422	50.944363	647.650917	870.582710	-19.412739	615.722640	1074.941243	-466.770835	671.160839	883.701645	-373.682721	161.733442	1161.691400	-166.612683	317.248374	1162.724982	-338.677162	362.207017	1132.931417	-46.884320	319.542571	1073.366076	-303.540361	337.863614	1043.538310	-62.288047	221.611514	1197.923181	-110.540768	213.913418	1220.532518	-221.420298	224.453599	1021.896526	-1.306053	211.946313	1063.200913	-378.995000	242.499961	877.907719	11.211615	270.243507	797.683636	-14.461266	252.511689	714.847570	-29.196296	305.397868	803.916909	-27.358070	282.217746	615.988331	-59.883107	234.609817	615.516338	-168.187951	223.356926	518.333958	-17.995110	222.134177	430.428896	-31.553598	179.161062	354.999452	-30.865513	247.961212	425.937904	-59.867781	148.363456	256.613608	-43.070045	170.639659	264.030883	-125.274246	93.918273	247.916669	-92.631853	325.420280	171.782396	-86.752692	238.090894	165.477893	-26.993405	301.940582	959.860268	-391.367575	378.907699	924.390372	-372.272075	398.410627	951.124334	-355.817906	430.587399	852.400908	-368.517606	505.801394	766.480606	-343.138502	480.149927	754.199134	-222.564752	162.813868	607.533313	-374.286800	167.118152	594.319765	-292.355342	107.349015	635.576052	-332.756601	138.403961	460.090255	-389.641350	400.649672	715.956147	-385.242672	337.105962	658.180696	-373.952811	249.600868	637.187319	-381.086025	347.484294	637.858795	-341.224175	193.064905	396.299911	-329.668359	-204.466241	834.243121	-224.109063	-78.226123	81.852961	-423.620839	-102.670882	80.443550	-24.358388	
1754	8.7700	695.542980	1325.231552	-40.494331	723.531972	1320.070608	-348.153864	700.270814	1341.671993	-190.631068	693.371990	1201.594745	-197.209203	594.639023	1075.791713	50.542725	647.596451	870.529995	-19.269242	616.653271	1074.631547	-467.673862	671.034972	883.847520	-373.713149	161.155322	1158.009783	-164.325764	314.959598	1160.765051	-338.760747	363.495658	1129.389160	-47.785273	318.054338	1071.541258	-303.358533	338.506601	1039.740057	-62.775657	221.806832	1193.596962	-108.546407	212.582283	1217.433625	-219.174207	225.681146	1017.641151	0.977598	209.784141	1060.543665	-378.289218	240.121819	876.480622	12.670812	265.832376	795.420752	-12.941192	246.264821	712.976356	-26.948944	300.984001	800.912106	-26.166821	274.232492	613.613896	-58.144838	226.095002	613.791192	-166.761498	216.006597	515.772003	-17.017850	214.912092	427.999539	-30.641570	172.224212	352.235677	-30.082680	240.488186	423.625065	-59.292416	141.582070	254.208130	-42.644519	163.701218	261.436912	-124.618441	87.292000	247.367150	-92.596128	316.829957	165.058860	-87.299231	229.277300	160.749366	-27.441125	302.767482	959.185382	-390.077253	381.295846	926.880148	-371.410014	399.929223	954.432091	-355.175168	435.860157	856.994743	-367.675622	511.148283	772.974402	-343.324549	486.453211	758.076963	-223.051052	168.298617	613.207204	-373.125571	172.910016	599.866529	-291.298910	111.932211	639.846517	-332.078077	147.803435	465.247412	-389.077861	405.148267	723.415177	-385.287771	342.101178	665.214758	-374.243906	254.561333	643.820579	-380.406348	353.158129	644.306167	-342.292965	204.284602	403.141782	-328.982893	-204.611157	834.045337	-223.966196	-78.235369	81.830556	-423.614200	-102.683472	80.446964	-24.358212	
1755	8.7750	694.412432	1325.110233	-42.041864	723.793140	1319.744364	-348.927863	699.189877	1341.436150	-191.480081	694.720053	1201.429286	-197.751650	593.541941	1075.677855	50.266136	647.595001	870.458160	-19.080576	617.572067	1074.250707	-468.673162	670.879538	884.000636	-373.732556	160.007199	1154.297440	-161.938391	312.721854	1158.874174	-338.761261	364.732970	1125.847161	-48.791672	316.657919	1069.876194	-303.590203	339.237092	1036.269719	-63.224511	222.173645	1189.779791	-107.071952	211.179678	1213.988496	-216.718628	226.721912	1013.855309	3.237924	207.474884	1057.707924	-377.542058	237.682138	875.236782	14.069628	261.753793	793.696552	-11.181259	240.558166	711.450829	-24.444879	296.920439	798.321378	-24.744215	266.132803	611.544012	-56.260626	219.002866	611.646775	-164.598191	208.660275	513.599732	-15.881277	207.711946	425.951678	-29.747183	165.314377	350.093582	-29.114549	233.152492	421.932150	-58.210250	134.591211	252.224167	-42.223303	156.660391	259.848331	-123.869509	80.452602	247.062688	-92.401479	307.854653	159.108499	-87.739131	220.227356	156.849194	-27.771464	303.452990	958.723913	-388.722576	383.430765	929.555521	-370.974133	401.134063	957.777565	-354.753714	440.689454	861.798216	-367.691927	516.183370	779.697252	-343.779918	492.703974	762.246445	-223.612495	174.434196	618.929217	-372.982143	178.639453	605.099078	-290.332622	116.373002	643.359386	-331.202474	157.515449	469.990865	-388.414840	409.489798	730.830968	-385.209723	346.974193	672.026957	-374.413571	259.482789	650.270888	-379.693285	358.710255	650.318560	-343.323605	215.691496	409.636739	-328.309674	-204.509870	834.230426	-224.062123	-78.238807	81.845831	-423.622879	-102.663436	80.442761	-24.354411	
